<?xml version="1.0" encoding="utf-8"?>
<!-- Generator: Adobe Illustrator 26.5.1, SVG Export Plug-In . SVG Version: 6.00 Build 0)  -->
<svg version="1.1" id="Layer_1" xmlns="http://www.w3.org/2000/svg" xmlns:xlink="http://www.w3.org/1999/xlink" x="0px" y="0px"
	 viewBox="0 0 361.8 262.12" style="enable-background:new 0 0 361.8 262.12;" xml:space="preserve">
<style type="text/css">
	.st0{fill:#D34F53;}
	.st1{fill:#E7965A;}
	.st2{fill:#FFFFFF;}
</style>
<g>
	<path class="st0" d="M322.37,186l-35.31-71.81l-30.43-61.89c-9.46-19.25-36.9-19.25-46.37,0l-22.62,46l7.81,15.89L230.77,186
		c8.44,17.17-4.05,37.24-23.18,37.24h25.87h65.74C318.32,223.24,330.82,203.17,322.37,186"/>
	<path class="st1" d="M144.53,186l35.31-71.81l7.81-15.89l-22.62-46c-9.46-19.25-36.91-19.25-46.37,0L88.23,114.2L52.92,186
		c-8.44,17.17,4.05,37.24,23.18,37.24h65.74h25.87C148.58,223.24,136.09,203.17,144.53,186"/>
	<path class="st2" d="M230.77,186l-35.31-71.81l-7.81-15.89l-7.81,15.89L144.53,186c-8.44,17.17,4.05,37.24,23.18,37.24h39.87
		C226.71,223.24,239.21,203.17,230.77,186"/>
</g>
</svg>
